<svg width="230" height="112" viewBox="0 0 230 112" fill="none" xmlns="http://www.w3.org/2000/svg">
<path fill-rule="evenodd" clip-rule="evenodd" d="M43.7888 61.7006C41.704 63.21 38.8154 62.7159 37.3401 60.5954C35.8561 58.4749 36.3419 55.5368 38.4267 54.0363L66.3945 33.6763C68.4616 32.1848 71.315 32.661 72.8079 34.7276L91.085 60.1372C92.4984 62.0959 92.1981 64.8004 90.4667 66.3997L44.2128 111.361C42.3577 113.149 39.4338 113.077 37.667 111.199C35.9091 109.312 35.9797 106.338 37.826 104.541L81.2088 62.3744L68.0288 44.045L43.7712 61.7006H43.7888Z" fill="#C19F80"/>
<path fill-rule="evenodd" clip-rule="evenodd" d="M42.279 54.0082C44.6376 55.0055 45.7595 57.7639 44.7789 60.1629C43.7984 62.5619 41.0864 63.703 38.7278 62.7057L22.2174 55.7243L10.7069 72.1399L43.7984 104.621C45.6358 106.418 45.6977 109.401 43.9221 111.279C42.1553 113.147 39.2225 113.21 37.3762 111.404L1.41378 76.0933C-0.211635 74.503 -0.494317 71.8973 0.857255 69.9745L16.6963 47.3862C17.88 45.4994 20.2651 44.6907 22.3764 45.5802L42.279 54.0082Z" fill="#C19F80"/>
<path fill-rule="evenodd" clip-rule="evenodd" d="M41.0231 0C46.2616 0 51.0142 2.16539 54.4594 5.66954H54.477C57.9222 9.17369 60.0512 14.0166 60.0512 19.3537C60.0512 24.6908 57.9222 29.5158 54.477 33.0199L54.4594 33.0379C51.0142 36.542 46.2616 38.7074 41.0231 38.7074C35.7847 38.7074 31.0144 36.542 27.5692 33.0379V33.0199C24.1241 29.5158 21.9951 24.6818 21.9951 19.3537C21.9951 14.0256 24.1241 9.17369 27.5692 5.66954C31.0144 2.16539 35.7759 0 41.0231 0ZM47.9312 12.3364C46.1644 10.5484 43.7263 9.44325 41.0231 9.44325C38.32 9.44325 35.8907 10.5574 34.1239 12.3454C32.3572 14.1424 31.2706 16.6223 31.2706 19.3627C31.2706 22.1031 32.3572 24.592 34.1151 26.389C35.8819 28.177 38.32 29.2821 41.0143 29.2821C43.7086 29.2821 46.1556 28.177 47.9223 26.389C49.6803 24.592 50.7668 22.1121 50.7668 19.3627C50.7668 16.6133 49.6714 14.1424 47.9135 12.3454L47.9312 12.3364Z" fill="#C19F80"/>
<path fill-rule="evenodd" clip-rule="evenodd" d="M106.597 38.3483V13.2891H113.461L123.134 31.0076H123.487L123.134 27.9616V13.2891H128.417V38.3393H121.553L111.88 20.6209H111.526L111.88 23.6668V38.3393H106.597V38.3483ZM132.577 38.3483V13.2891H151.049V18.3028H137.851V23.3164H148.408V27.9706H137.851V33.3437H151.049V38.3573H132.577V38.3483ZM154.158 28.5097V13.2891H159.441V28.5007C159.441 30.2169 159.918 31.5736 160.863 32.562C161.817 33.5503 163.098 34.0445 164.715 34.0445C166.331 34.0445 167.621 33.5503 168.566 32.562C169.52 31.5736 169.989 30.2169 169.989 28.5007V13.2891H175.271V28.5007C175.271 31.7264 174.317 34.2871 172.418 36.1919C170.519 38.0967 167.948 39.0581 164.715 39.0581C161.482 39.0581 158.911 38.1057 157.012 36.1919C155.112 34.2871 154.158 31.7174 154.158 28.5007V28.5097ZM179.264 38.3483V13.2891H190.88C193.813 13.2891 196.163 14.0978 197.921 15.7061C199.679 17.3144 200.562 19.3181 200.562 21.6991C200.562 23.559 200.05 25.1493 199.016 26.4611C197.983 27.773 196.622 28.7523 194.935 29.3992L200.562 38.3483H194.582L189.476 30.118H184.547V38.3483H179.264ZM184.547 25.1044H190.704C192.161 25.1044 193.257 24.7989 193.99 24.1879C194.723 23.577 195.094 22.7503 195.094 21.6991C195.094 20.6478 194.723 19.8212 193.99 19.2102C193.257 18.5993 192.153 18.2938 190.704 18.2938H184.547V25.0954V25.1044ZM206.499 35.2125C203.91 32.6518 202.612 29.516 202.612 25.8142C202.612 22.1124 203.91 18.9856 206.499 16.4159C209.087 13.8552 212.311 12.5703 216.154 12.5703C219.997 12.5703 223.221 13.8552 225.809 16.4159C228.398 18.9856 229.696 22.1124 229.696 25.8142C229.696 29.516 228.398 32.6428 225.809 35.2125C223.221 37.7733 219.997 39.0581 216.154 39.0581C212.311 39.0581 209.087 37.7733 206.499 35.2125ZM210.474 19.8931C208.981 21.4295 208.239 23.4062 208.239 25.8142C208.239 28.2222 208.981 30.1989 210.474 31.7353C211.967 33.2718 213.857 34.0445 216.154 34.0445C218.451 34.0445 220.35 33.2718 221.834 31.7353C223.327 30.1989 224.069 28.2222 224.069 25.8142C224.069 23.4062 223.327 21.4295 221.834 19.8931C220.341 18.3567 218.451 17.5839 216.154 17.5839C213.857 17.5839 211.958 18.3567 210.474 19.8931ZM106.588 71.5389V46.4887H118.205C121.138 46.4887 123.487 47.2974 125.245 48.9057C127.003 50.514 127.887 52.5177 127.887 54.8987C127.887 56.7586 127.374 58.3489 126.341 59.6608C125.307 60.9726 123.947 61.9519 122.259 62.5989L127.887 71.5479H121.906L116.8 63.3177H111.871V71.5479H106.588V71.5389ZM111.871 58.295H118.028C119.486 58.295 120.581 57.9895 121.314 57.3786C122.047 56.7676 122.418 55.941 122.418 54.8897C122.418 53.8385 122.047 53.0118 121.314 52.4009C120.581 51.7899 119.477 51.4844 118.028 51.4844H111.871V58.2861V58.295ZM130.996 71.5389V46.4887H149.468V51.5024H136.27V56.516H146.826V61.1702H136.27V66.5433H149.468V71.5569H130.996V71.5389ZM152.754 71.5389V46.4887H158.036V56.3273H168.946V46.4887H174.229V71.5389H168.946V61.341H158.036V71.5389H152.754ZM176.278 71.5389L182.789 46.4887H193.875L200.386 71.5389H194.935L193.531 65.9952H183.151L181.746 71.5389H176.296H176.278ZM184.37 60.9816H192.285L189.82 51.4934H186.826L184.361 60.9816H184.37ZM202.435 71.5389V46.4887H215.103C217.567 46.4887 219.502 47.0997 220.907 48.3127C222.311 49.5257 223.018 51.0711 223.018 52.931C223.018 54.7909 222.373 56.1297 221.083 57.1539C220.474 57.5852 219.829 57.9087 219.149 58.1243V58.304C219.97 58.4747 220.756 58.8072 221.507 59.3103C223.106 60.3885 223.901 62.0148 223.901 64.2162C223.901 66.4175 223.106 68.1246 221.525 69.4993C219.944 70.8741 217.744 71.5569 214.926 71.5569H202.435V71.5389ZM207.718 56.3273H214.405C215.412 56.3273 216.189 56.0937 216.746 55.6265C217.294 55.1593 217.576 54.5573 217.576 53.8205C217.576 53.0837 217.302 52.4817 216.746 52.0145C216.189 51.5473 215.412 51.3137 214.405 51.3137H207.718V56.3273ZM207.718 66.705H214.582C215.871 66.705 216.843 66.4444 217.488 65.9143C218.133 65.3932 218.46 64.7014 218.46 63.8388C218.46 62.9762 218.133 62.2844 217.488 61.7632C216.843 61.2421 215.871 60.9726 214.582 60.9726H207.718V66.696V66.705ZM109.362 101.666C106.818 99.1499 105.546 95.9961 105.546 92.1955C105.546 88.3948 106.818 85.2501 109.362 82.7253C111.906 80.2095 115.148 78.9516 119.088 78.9516C123.523 78.9516 126.924 80.5419 129.291 83.7136C130.369 85.1243 131.129 86.6967 131.579 88.4398H126.129C125.819 87.6311 125.351 86.8853 124.724 86.2205C123.249 84.72 121.367 83.9652 119.097 83.9652C116.827 83.9652 114.901 84.7379 113.417 86.2744C111.924 87.8108 111.182 89.7875 111.182 92.1955C111.182 94.6035 111.906 96.697 113.346 98.1885C114.786 99.68 116.703 100.426 119.097 100.426C121.491 100.426 123.417 99.5901 124.865 97.9189C125.519 97.1283 126.005 96.2926 126.305 95.4121H131.756C131.217 97.299 130.404 98.9702 129.326 100.426C126.791 103.768 123.381 105.439 119.088 105.439C115.148 105.439 111.906 104.181 109.362 101.666ZM134.697 104.73V79.6794H139.98V99.7249H152.118V104.739H134.697V104.73ZM154.344 104.73V79.6794H159.626V104.73H154.344ZM163.787 104.73V79.6794H170.651L180.324 97.3978H180.677L180.324 94.3519V79.6794H185.607V104.73H178.743L169.07 87.0111H168.716L169.07 90.0571V104.73H163.787ZM189.767 104.73V79.6794H195.05V104.73H189.767ZM201.976 101.666C199.432 99.1499 198.16 95.9961 198.16 92.1955C198.16 88.3948 199.432 85.2501 201.976 82.7253C204.52 80.2005 207.762 78.9516 211.702 78.9516C216.136 78.9516 219.537 80.5419 221.905 83.7136C222.983 85.1243 223.742 86.6967 224.193 88.4398H218.742C218.433 87.6311 217.965 86.8853 217.338 86.2205C215.862 84.72 213.981 83.9652 211.711 83.9652C209.44 83.9652 207.515 84.7379 206.03 86.2744C204.538 87.8108 203.795 89.7875 203.795 92.1955C203.795 94.6035 204.52 96.697 205.96 98.1885C207.4 99.68 209.317 100.426 211.711 100.426C214.105 100.426 216.03 99.5901 217.479 97.9189C218.133 97.1283 218.619 96.2926 218.919 95.4121H224.369C223.831 97.299 223.018 98.9702 221.94 100.426C219.405 103.768 215.995 105.439 211.702 105.439C207.762 105.439 204.52 104.181 201.976 101.666Z" fill="#C19F80"/>
</svg>
