<svg width="24" height="24" viewBox="0 0 24 24" fill="none" xmlns="http://www.w3.org/2000/svg">
<path d="M8.07005 12.5429L16.4296 20.5079C16.569 20.6409 16.7543 20.7151 16.9471 20.7151C17.1398 20.7151 17.3251 20.6409 17.4646 20.5079L17.4736 20.4989C17.5414 20.4345 17.5954 20.3569 17.6324 20.2709C17.6693 20.1849 17.6883 20.0923 17.6883 19.9987C17.6883 19.9051 17.6693 19.8125 17.6324 19.7265C17.5954 19.6405 17.5414 19.5629 17.4736 19.4984L9.60155 11.9984L17.4736 4.50145C17.5414 4.43699 17.5954 4.3594 17.6324 4.2734C17.6693 4.1874 17.6883 4.09479 17.6883 4.0012C17.6883 3.90761 17.6693 3.815 17.6324 3.729C17.5954 3.643 17.5414 3.56541 17.4736 3.50095L17.4646 3.49195C17.3251 3.35898 17.1398 3.2848 16.9471 3.2848C16.7543 3.2848 16.569 3.35898 16.4296 3.49195L8.07005 11.4569C7.99653 11.527 7.93801 11.6112 7.89801 11.7046C7.85802 11.7979 7.8374 11.8984 7.8374 11.9999C7.8374 12.1015 7.85802 12.202 7.89801 12.2953C7.93801 12.3887 7.99653 12.4729 8.07005 12.5429Z" fill="#6FADF8"/>
</svg>
