<svg width="24" height="24" viewBox="0 0 24 24" fill="none" xmlns="http://www.w3.org/2000/svg">
<path d="M15.9299 11.4571L7.57045 3.49206C7.43096 3.35909 7.24565 3.28491 7.05295 3.28491C6.86024 3.28491 6.67493 3.35909 6.53545 3.49206L6.52645 3.50106C6.45859 3.56552 6.40457 3.6431 6.36764 3.7291C6.33072 3.8151 6.31168 3.90772 6.31168 4.00131C6.31168 4.09489 6.33072 4.18751 6.36764 4.27351C6.40457 4.35951 6.45859 4.43709 6.52645 4.50155L14.3984 12.0016L6.52645 19.4986C6.45859 19.563 6.40457 19.6406 6.36764 19.7266C6.33072 19.8126 6.31168 19.9052 6.31168 19.9988C6.31168 20.0924 6.33072 20.185 6.36764 20.271C6.40457 20.357 6.45859 20.4346 6.52645 20.4991L6.53545 20.5081C6.67493 20.641 6.86024 20.7152 7.05295 20.7152C7.24565 20.7152 7.43096 20.641 7.57045 20.5081L15.9299 12.5431C16.0035 12.473 16.062 12.3888 16.102 12.2954C16.142 12.2021 16.1626 12.1016 16.1626 12.0001C16.1626 11.8985 16.142 11.798 16.102 11.7047C16.062 11.6113 16.0035 11.5271 15.9299 11.4571Z" fill="#6FADF8"/>
</svg>
