<svg width="12" height="12" viewBox="0 0 12 12" fill="none" xmlns="http://www.w3.org/2000/svg">
<g clip-path="url(#clip0_80_6)">
<path d="M5.98145 5.68135V11.6251C5.98145 11.6251 8.4377 9.9001 10.1627 9.39385C10.1627 9.39385 10.2377 5.71885 11.3064 3.88135L5.98145 5.68135Z" fill="#076170"/>
<path d="M7.51855 10.7251C7.51855 10.7251 7.6123 5.45635 7.7998 5.19385C7.9873 4.9126 9.59981 4.63135 9.59981 4.63135C9.59981 4.63135 8.94355 9.5626 9.09355 9.88135C9.1123 9.8626 8.4373 10.1438 7.51855 10.7251Z" fill="#B3690E"/>
<path d="M5.98115 11.6251C5.98115 11.6251 4.25615 10.1626 1.5749 9.39385C1.5749 9.39385 1.78115 6.3751 0.806152 4.06885L5.98115 5.68135V11.6251Z" fill="#3BAACF"/>
<path d="M2.6624 9.88135C2.6624 9.88135 4.2374 10.5188 4.3499 10.7251C4.4624 10.9313 4.4624 5.41885 4.4624 5.41885C4.4624 5.41885 2.30615 4.81885 2.11865 4.81885C2.11865 4.81885 2.7749 7.0501 2.6624 9.88135Z" fill="#E9C243"/>
<path opacity="0.3" d="M5.98135 5.68135V6.6751L10.8001 5.0251C10.9313 4.6126 11.1001 4.21885 11.2876 3.88135L5.98135 5.68135ZM1.14385 5.1001C1.0501 4.74385 0.937598 4.40635 0.787598 4.06885L5.9626 5.68135V6.6751L1.14385 5.1001Z" fill="black"/>
<path d="M0.375 3.5437L5.71875 4.72495L11.625 3.29995L5.83125 2.9812L0.375 3.5437Z" fill="#4FC7E8"/>
<path d="M0.375 3.5437L0.80625 4.72495L5.71875 6.11245V4.72495L0.375 3.5437Z" fill="#3BAACF"/>
<path d="M5.71875 6.1126C5.71875 6.1126 10.1813 4.4626 11.2875 4.3876C11.2875 4.3876 11.3625 3.73135 11.625 3.31885L5.71875 4.7251V6.1126Z" fill="#076170"/>
<path d="M1.96875 3.9002L3.05625 4.93145L4.25625 4.3877L6 3.8627L8.175 4.1252L9.31875 4.3502L10.2375 3.6377L1.96875 3.9002Z" fill="#F0AE11"/>
<path d="M4.25625 4.3876L6 3.8626L8.175 4.1251L10.2375 3.6376L5.8875 3.2251L1.96875 3.9001L4.25625 4.3876Z" fill="#F0AE11"/>
<path d="M1.96875 3.8999V5.2124L4.1625 5.8124L4.25625 4.3874L1.96875 3.8999Z" fill="#F8D048"/>
<path d="M8.1748 4.12495L8.2123 5.3812L10.0873 4.8187L10.2373 3.63745L8.1748 4.12495Z" fill="#C47116"/>
<path d="M6.99376 3.24375C6.99376 3.24375 6.99376 1.93125 8.26876 0.7875C8.26876 0.7875 7.50001 1.06875 7.12501 0.99375C6.67501 0.91875 6.52501 0.375 6.52501 0.375C6.52501 0.375 5.43751 2.7375 5.75626 3.0375C6.07501 3.35625 6.99376 3.24375 6.99376 3.24375Z" fill="#EA9F07"/>
<path d="M5.3251 4.01245C5.3251 4.01245 4.59385 2.51245 3.0376 1.72495C3.0376 1.72495 4.25635 1.61245 4.5376 1.46245C4.89385 1.2937 5.1001 0.824951 5.1001 0.824951C5.1001 0.824951 6.4501 3.18745 6.3376 3.5437C6.2251 3.89995 5.3251 4.01245 5.3251 4.01245Z" fill="#F8D048"/>
<path d="M6.11248 3.8437C6.11248 3.8437 4.96873 4.2937 3.50623 4.2937C0.43123 4.27495 -1.9908e-05 2.06245 3.03748 2.2687C5.53123 2.4562 6.11248 3.8437 6.11248 3.8437Z" fill="#EA9F07"/>
<path d="M5.90615 3.82493C5.90615 3.82493 7.25615 3.93743 8.5124 3.61868C11.1374 2.94368 10.1624 0.956178 7.6874 1.79993C5.6624 2.49368 5.90615 3.82493 5.90615 3.82493Z" fill="#F0AE11"/>
<path d="M6.11239 3.84386C6.11239 3.84386 5.39989 4.12511 4.48114 4.12511C2.56864 4.12511 2.28739 2.73761 4.18114 2.86886C5.73739 2.98136 6.11239 3.84386 6.11239 3.84386Z" fill="#824000"/>
<path d="M6.11263 3.84375C6.11263 3.84375 7.05013 3.91875 7.93138 3.69375C9.76888 3.225 9.07513 1.8375 7.36888 2.41875C5.94388 2.90625 6.11263 3.84375 6.11263 3.84375Z" fill="#824000"/>
</g>
<defs>
<clipPath id="clip0_80_6">
<rect width="12" height="12" fill="white"/>
</clipPath>
</defs>
</svg>
