<svg width="33" height="40" viewBox="0 0 33 40" fill="none" xmlns="http://www.w3.org/2000/svg">
<path fill-rule="evenodd" clip-rule="evenodd" d="M15.632 21.8957C14.8878 22.4314 13.8567 22.256 13.3301 21.5035C12.8003 20.751 12.9738 19.7084 13.718 19.1759L23.7015 11.9507C24.4394 11.4214 25.4579 11.5904 25.9908 12.3238L32.5151 21.3409C33.0197 22.036 32.9125 22.9957 32.2944 23.5633L15.7834 39.5187C15.1212 40.1532 14.0774 40.1277 13.4468 39.4613C12.8192 38.7917 12.8445 37.7363 13.5035 37.0986L28.9897 22.1348L24.2849 15.6303L15.6257 21.8957H15.632Z" fill="#556251"/>
<path fill-rule="evenodd" clip-rule="evenodd" d="M15.0932 19.1662C15.9351 19.5202 16.3356 20.499 15.9856 21.3504C15.6355 22.2017 14.6675 22.6066 13.8255 22.2527L7.93188 19.7752L3.82305 25.6007L15.6355 37.1272C16.2914 37.7649 16.3135 38.8235 15.6797 39.4899C15.049 40.1531 14.0021 40.1754 13.343 39.5345L0.505718 27.0036C-0.0745006 26.4392 -0.175408 25.5146 0.307056 24.8322L5.96103 16.8163C6.38358 16.1467 7.23499 15.8597 7.98864 16.1754L15.0932 19.1662Z" fill="#556251"/>
<path fill-rule="evenodd" clip-rule="evenodd" d="M14.6449 0C16.5148 0 18.2113 0.768434 19.4411 2.01196H19.4474C20.6773 3.25548 21.4372 4.97409 21.4372 6.86808C21.4372 8.76206 20.6773 10.4743 19.4474 11.7178L19.4411 11.7242C18.2113 12.9677 16.5148 13.7362 14.6449 13.7362C12.7749 13.7362 11.0721 12.9677 9.84231 11.7242V11.7178C8.6125 10.4743 7.85254 8.75887 7.85254 6.86808C7.85254 4.97728 8.6125 3.25548 9.84231 2.01196C11.0721 0.768434 12.7718 0 14.6449 0ZM17.1108 4.37784C16.4801 3.74332 15.6098 3.35114 14.6449 3.35114C13.68 3.35114 12.8128 3.74651 12.1821 4.38103C11.5514 5.01873 11.1636 5.89876 11.1636 6.87126C11.1636 7.84376 11.5514 8.72698 12.179 9.36469C12.8096 9.9992 13.68 10.3914 14.6417 10.3914C15.6035 10.3914 16.477 9.9992 17.1077 9.36469C17.7352 8.72698 18.123 7.84695 18.123 6.87126C18.123 5.89558 17.732 5.01873 17.1045 4.38103L17.1108 4.37784Z" fill="#556251"/>
</svg>
