<svg width="82" height="40" viewBox="0 0 82 40" fill="none" xmlns="http://www.w3.org/2000/svg">
<g clip-path="url(#clip0_1461_3894)">
<path fill-rule="evenodd" clip-rule="evenodd" d="M15.6312 21.8956C14.887 22.4313 13.8558 22.2559 13.3292 21.5034C12.7995 20.7509 12.9729 19.7083 13.7171 19.1758L23.7006 11.9506C24.4385 11.4213 25.457 11.5903 25.99 12.3236L32.5143 21.3408C33.0188 22.0359 32.9116 22.9956 32.2935 23.5632L15.7825 39.5185C15.1203 40.1531 14.0766 40.1276 13.4459 39.4611C12.8184 38.7916 12.8436 37.7362 13.5027 37.0985L28.9888 22.1347L24.284 15.6301L15.6249 21.8956H15.6312Z" fill="#556251"/>
<path fill-rule="evenodd" clip-rule="evenodd" d="M15.092 19.1662C15.9339 19.5201 16.3344 20.499 15.9844 21.3503C15.6343 22.2016 14.6662 22.6066 13.8243 22.2526L7.93067 19.7752L3.82184 25.6006L15.6343 37.1271C16.2902 37.7648 16.3123 38.8234 15.6785 39.4898C15.0478 40.153 14.0009 40.1753 13.3418 39.5344L0.504505 27.0035C-0.0757136 26.4392 -0.176621 25.5145 0.305843 24.8322L5.95982 16.8162C6.38237 16.1466 7.23378 15.8597 7.98743 16.1753L15.092 19.1662Z" fill="#556251"/>
<path fill-rule="evenodd" clip-rule="evenodd" d="M14.6442 -2.67029e-05C16.5141 -2.67029e-05 18.2106 0.768407 19.4404 2.01193H19.4467C20.6765 3.25545 21.4365 4.97407 21.4365 6.86805C21.4365 8.76203 20.6765 10.4743 19.4467 11.7178L19.4404 11.7242C18.2106 12.9677 16.5141 13.7361 14.6442 13.7361C12.7742 13.7361 11.0714 12.9677 9.8416 11.7242V11.7178C8.61179 10.4743 7.85183 8.75884 7.85183 6.86805C7.85183 4.97726 8.61179 3.25545 9.8416 2.01193C11.0714 0.768407 12.7711 -2.67029e-05 14.6442 -2.67029e-05ZM17.1101 4.37781C16.4794 3.7433 15.6091 3.35111 14.6442 3.35111C13.6792 3.35111 12.8121 3.74649 12.1814 4.381C11.5507 5.01871 11.1629 5.89874 11.1629 6.87124C11.1629 7.84374 11.5507 8.72696 12.1782 9.36466C12.8089 9.99918 13.6792 10.3914 14.641 10.3914C15.6028 10.3914 16.4763 9.99918 17.1069 9.36466C17.7345 8.72696 18.1223 7.84692 18.1223 6.87124C18.1223 5.89555 17.7313 5.01871 17.1038 4.381L17.1101 4.37781Z" fill="#556251"/>
<path fill-rule="evenodd" clip-rule="evenodd" d="M38.0516 13.6087V4.71587H40.5018L43.9547 11.0036H44.0808L43.9547 9.92273V4.71587H45.8404V13.6055H43.3902L39.9373 7.3177H39.8112L39.9373 8.39861V13.6055H38.0516V13.6087ZM47.3256 13.6087V4.71587H53.9193V6.49507H49.2082V8.27426H52.9765V9.92591H49.2082V11.8327H53.9193V13.6118H47.3256V13.6087ZM55.0293 10.1172V4.71587H56.915V10.114C56.915 10.723 57.0853 11.2045 57.4227 11.5552C57.7633 11.906 58.2205 12.0814 58.7976 12.0814C59.3746 12.0814 59.835 11.906 60.1724 11.5552C60.513 11.2045 60.6801 10.723 60.6801 10.114V4.71587H62.5658V10.114C62.5658 11.2587 62.2253 12.1674 61.5473 12.8434C60.8693 13.5194 59.9517 13.8606 58.7976 13.8606C57.6434 13.8606 56.7258 13.5226 56.0478 12.8434C55.3699 12.1674 55.0293 11.2555 55.0293 10.114V10.1172ZM63.9911 13.6087V4.71587H68.1378C69.1847 4.71587 70.0235 5.00284 70.651 5.57358C71.2786 6.14433 71.5939 6.85537 71.5939 7.70033C71.5939 8.36035 71.411 8.92472 71.0421 9.39024C70.6731 9.85577 70.1875 10.2033 69.5852 10.4329L71.5939 13.6087H69.4591L67.6364 10.688H65.8769V13.6087H63.9911ZM65.8769 8.90878H68.0747C68.5951 8.90878 68.9861 8.80037 69.2478 8.58355C69.5095 8.36673 69.642 8.07338 69.642 7.70033C69.642 7.32727 69.5095 7.03393 69.2478 6.81711C68.9861 6.60029 68.5919 6.49188 68.0747 6.49188H65.8769V8.90559V8.90878ZM73.713 12.4959C72.789 11.5871 72.3255 10.4743 72.3255 9.16067C72.3255 7.847 72.789 6.73739 73.713 5.82548C74.6369 4.91675 75.7879 4.46079 77.1596 4.46079C78.5313 4.46079 79.6823 4.91675 80.6062 5.82548C81.5301 6.73739 81.9937 7.847 81.9937 9.16067C81.9937 10.4743 81.5301 11.5839 80.6062 12.4959C79.6823 13.4046 78.5313 13.8606 77.1596 13.8606C75.7879 13.8606 74.6369 13.4046 73.713 12.4959ZM75.132 7.05943C74.599 7.60467 74.3342 8.30615 74.3342 9.16067C74.3342 10.0152 74.599 10.7167 75.132 11.2619C75.6649 11.8071 76.3397 12.0814 77.1596 12.0814C77.9795 12.0814 78.6574 11.8071 79.1872 11.2619C79.7201 10.7167 79.985 10.0152 79.985 9.16067C79.985 8.30615 79.7201 7.60467 79.1872 7.05943C78.6543 6.5142 77.9795 6.23998 77.1596 6.23998C76.3397 6.23998 75.6617 6.5142 75.132 7.05943ZM38.0484 25.3871V16.4975H42.1951C43.242 16.4975 44.0808 16.7844 44.7083 17.3552C45.3359 17.9259 45.6512 18.637 45.6512 19.4819C45.6512 20.1419 45.4683 20.7063 45.0994 21.1718C44.7304 21.6374 44.2448 21.9849 43.6425 22.2145L45.6512 25.3902H43.5164L41.6937 22.4696H39.9342V25.3902H38.0484V25.3871ZM39.9342 20.6872H42.132C42.6523 20.6872 43.0434 20.5788 43.3051 20.3619C43.5668 20.1451 43.6993 19.8518 43.6993 19.4787C43.6993 19.1057 43.5668 18.8123 43.3051 18.5955C43.0434 18.3787 42.6492 18.2703 42.132 18.2703H39.9342V20.684V20.6872ZM46.7612 25.3871V16.4975H53.3549V18.2767H48.6437V20.0558H52.412V21.7075H48.6437V23.6142H53.3549V25.3934H46.7612V25.3871ZM54.5279 25.3871V16.4975H56.4136V19.9889H60.308V16.4975H62.1937V25.3871H60.308V21.7681H56.4136V25.3871H54.5279ZM62.9253 25.3871L65.2493 16.4975H69.2068L71.5308 25.3871H69.5852L69.0838 23.4197H65.3786L64.8772 25.3871H62.9316H62.9253ZM65.8138 21.6405H68.6392L67.7594 18.2735H66.6904L65.8106 21.6405H65.8138ZM72.2624 25.3871V16.4975H76.7843C77.6641 16.4975 78.3547 16.7143 78.8561 17.1447C79.3575 17.5752 79.6097 18.1236 79.6097 18.7836C79.6097 19.4437 79.3795 19.9187 78.9192 20.2822C78.7016 20.4353 78.4714 20.5501 78.2286 20.6266V20.6904C78.5218 20.7509 78.8025 20.8689 79.0705 21.0475C79.6413 21.4301 79.9251 22.0072 79.9251 22.7884C79.9251 23.5696 79.6413 24.1754 79.0768 24.6633C78.5124 25.1511 77.7272 25.3934 76.7213 25.3934H72.2624V25.3871ZM74.1481 19.9889H76.5352C76.8947 19.9889 77.1722 19.906 77.3709 19.7402C77.5664 19.5744 77.6673 19.3608 77.6673 19.0993C77.6673 18.8378 77.5695 18.6242 77.3709 18.4584C77.1722 18.2926 76.8947 18.2097 76.5352 18.2097H74.1481V19.9889ZM74.1481 23.6716H76.5983C77.0587 23.6716 77.4055 23.5792 77.6357 23.391C77.8659 23.2061 77.9826 22.9606 77.9826 22.6545C77.9826 22.3484 77.8659 22.1029 77.6357 21.9179C77.4055 21.733 77.0587 21.6374 76.5983 21.6374H74.1481V23.6684V23.6716ZM39.0386 36.0782C38.1304 35.1854 37.6763 34.0662 37.6763 32.7175C37.6763 31.3687 38.1304 30.2527 39.0386 29.3568C39.9468 28.464 41.104 28.0176 42.5104 28.0176C44.0934 28.0176 45.3075 28.582 46.1526 29.7075C46.5373 30.2081 46.8085 30.7661 46.9693 31.3847H45.0237C44.9133 31.0977 44.7462 30.8331 44.5223 30.5971C43.9957 30.0646 43.324 29.7968 42.5136 29.7968C41.7032 29.7968 41.0158 30.071 40.486 30.6162C39.9531 31.1615 39.6882 31.8629 39.6882 32.7175C39.6882 33.572 39.9468 34.3149 40.4608 34.8442C40.9748 35.3735 41.659 35.6382 42.5136 35.6382C43.3682 35.6382 44.0556 35.3416 44.5727 34.7486C44.8061 34.468 44.9795 34.1714 45.0867 33.859H47.0324C46.84 34.5285 46.5499 35.1216 46.1652 35.6382C45.2602 36.8243 44.043 37.4173 42.5104 37.4173C41.104 37.4173 39.9468 36.971 39.0386 36.0782ZM48.0824 37.1655V28.2759H49.9681V35.3894H54.3009V37.1686H48.0824V37.1655ZM55.0955 37.1655V28.2759H56.9812V37.1655H55.0955ZM58.4665 37.1655V28.2759H60.9166L64.3695 34.5636H64.4957L64.3695 33.4827V28.2759H66.2553V37.1655H63.8051L60.3522 30.8777H60.226L60.3522 31.9586V37.1655H58.4665ZM67.7405 37.1655V28.2759H69.6262V37.1655H67.7405ZM72.0984 36.0782C71.1903 35.1854 70.7362 34.0662 70.7362 32.7175C70.7362 31.3687 71.1903 30.2527 72.0984 29.3568C73.0066 28.4608 74.1639 28.0176 75.5703 28.0176C77.1533 28.0176 78.3673 28.582 79.2124 29.7075C79.5971 30.2081 79.8683 30.7661 80.0291 31.3847H78.0835C77.9731 31.0977 77.806 30.8331 77.5821 30.5971C77.0555 30.0646 76.3839 29.7968 75.5734 29.7968C74.763 29.7968 74.0756 30.071 73.5458 30.6162C73.0129 31.1615 72.748 31.8629 72.748 32.7175C72.748 33.572 73.0066 34.3149 73.5206 34.8442C74.0346 35.3735 74.7189 35.6382 75.5734 35.6382C76.428 35.6382 77.1154 35.3416 77.6326 34.7486C77.8659 34.468 78.0394 34.1714 78.1466 33.859H80.0922C79.8999 34.5285 79.6097 35.1216 79.225 35.6382C78.32 36.8243 77.1028 37.4173 75.5703 37.4173C74.1639 37.4173 73.0066 36.971 72.0984 36.0782Z" fill="#556251"/>
</g>
<defs>
<clipPath id="clip0_1461_3894">
<rect width="82" height="40" fill="white"/>
</clipPath>
</defs>
</svg>
