<svg width="104" height="104" viewBox="0 0 104 104" fill="none" xmlns="http://www.w3.org/2000/svg">
<g filter="url(#filter0_d_1668_581)">
<path d="M52 88C74.092 88 92 70.092 92 48C92 25.908 74.092 8 52 8C29.908 8 12 25.908 12 48C12 70.092 29.908 88 52 88Z" fill="white"/>
<path d="M44 48.544V39.3401C44 37.0307 46.5 35.5874 48.5 36.742L56.4711 41.344L64.4421 45.9459C66.4421 47.1006 66.4421 49.9874 64.4421 51.1421L56.4711 55.744L48.5 60.3461C46.5 61.5007 44 60.0574 44 57.748V48.544Z" fill="#0D113E"/>
</g>
<defs>
<filter id="filter0_d_1668_581" x="0" y="0" width="104" height="104" filterUnits="userSpaceOnUse" color-interpolation-filters="sRGB">
<feFlood flood-opacity="0" result="BackgroundImageFix"/>
<feColorMatrix in="SourceAlpha" type="matrix" values="0 0 0 0 0 0 0 0 0 0 0 0 0 0 0 0 0 0 127 0" result="hardAlpha"/>
<feOffset dy="4"/>
<feGaussianBlur stdDeviation="6"/>
<feComposite in2="hardAlpha" operator="out"/>
<feColorMatrix type="matrix" values="0 0 0 0 0 0 0 0 0 0 0 0 0 0 0 0 0 0 0.24 0"/>
<feBlend mode="normal" in2="BackgroundImageFix" result="effect1_dropShadow_1668_581"/>
<feBlend mode="normal" in="SourceGraphic" in2="effect1_dropShadow_1668_581" result="shape"/>
</filter>
</defs>
</svg>
